<svg xmlns="http://www.w3.org/2000/svg">
    <symbol id="envelope" viewBox="0 0 16 12">
        <g>
            <path d="M14.5 0H1.5C0.65625 0 0 0.6875 0 1.5V10.5C0 11.3438 0.65625 12 1.5 12H14.5C15.3125 12 16 11.3438 16 10.5V1.5C16 0.6875 15.3125 0 14.5 0ZM14.5 1.5V2.78125C13.7812 3.375 12.6562 4.25 10.2812 6.125C9.75 6.53125 8.71875 7.53125 8 7.5C7.25 7.53125 6.21875 6.53125 5.6875 6.125C3.3125 4.25 2.1875 3.375 1.5 2.78125V1.5H14.5ZM1.5 10.5V4.71875C2.1875 5.28125 3.21875 6.09375 4.75 7.3125C5.4375 7.84375 6.65625 9.03125 8 9C9.3125 9.03125 10.5 7.84375 11.2188 7.3125C12.75 6.09375 13.7812 5.28125 14.5 4.71875V10.5H1.5Z" fill="#363838"/>
        </g>
    </symbol>
    <symbol id="facebook" viewBox="0 0 16 16">
        <g>
            <path d="M15.75 8C15.75 3.71875 12.2812 0.25 8 0.25C3.71875 0.25 0.25 3.71875 0.25 8C0.25 11.875 3.0625 15.0938 6.78125 15.6562V10.25H4.8125V8H6.78125V6.3125C6.78125 4.375 7.9375 3.28125 9.6875 3.28125C10.5625 3.28125 11.4375 3.4375 11.4375 3.4375V5.34375H10.4688C9.5 5.34375 9.1875 5.9375 9.1875 6.5625V8H11.3438L11 10.25H9.1875V15.6562C12.9062 15.0938 15.75 11.875 15.75 8Z" fill="#707070"/>
        </g>
    </symbol>
    <symbol id="instagram" viewBox="0 0 14 15">
        <g>
            <path d="M7 3.40625C5 3.40625 3.40625 5.03125 3.40625 7C3.40625 9 5 10.5938 7 10.5938C8.96875 10.5938 10.5938 9 10.5938 7C10.5938 5.03125 8.96875 3.40625 7 3.40625ZM7 9.34375C5.71875 9.34375 4.65625 8.3125 4.65625 7C4.65625 5.71875 5.6875 4.6875 7 4.6875C8.28125 4.6875 9.3125 5.71875 9.3125 7C9.3125 8.3125 8.28125 9.34375 7 9.34375ZM11.5625 3.28125C11.5625 2.8125 11.1875 2.4375 10.7188 2.4375C10.25 2.4375 9.875 2.8125 9.875 3.28125C9.875 3.75 10.25 4.125 10.7188 4.125C11.1875 4.125 11.5625 3.75 11.5625 3.28125ZM13.9375 4.125C13.875 3 13.625 2 12.8125 1.1875C12 0.375 11 0.125 9.875 0.0625C8.71875 0 5.25 0 4.09375 0.0625C2.96875 0.125 2 0.375 1.15625 1.1875C0.34375 2 0.09375 3 0.03125 4.125C-0.03125 5.28125 -0.03125 8.75 0.03125 9.90625C0.09375 11.0312 0.34375 12 1.15625 12.8438C2 13.6562 2.96875 13.9062 4.09375 13.9688C5.25 14.0312 8.71875 14.0312 9.875 13.9688C11 13.9062 12 13.6562 12.8125 12.8438C13.625 12 13.875 11.0312 13.9375 9.90625C14 8.75 14 5.28125 13.9375 4.125ZM12.4375 11.125C12.2188 11.75 11.7188 12.2188 11.125 12.4688C10.1875 12.8438 8 12.75 7 12.75C5.96875 12.75 3.78125 12.8438 2.875 12.4688C2.25 12.2188 1.78125 11.75 1.53125 11.125C1.15625 10.2188 1.25 8.03125 1.25 7C1.25 6 1.15625 3.8125 1.53125 2.875C1.78125 2.28125 2.25 1.8125 2.875 1.5625C3.78125 1.1875 5.96875 1.28125 7 1.28125C8 1.28125 10.1875 1.1875 11.125 1.5625C11.7188 1.78125 12.1875 2.28125 12.4375 2.875C12.8125 3.8125 12.7188 6 12.7188 7C12.7188 8.03125 12.8125 10.2188 12.4375 11.125Z" fill="#707070"/>
        </g>
    </symbol>
    <symbol id="pinterest" viewBox="0 0 16 16">
        <g>
            <path d="M15.5 8C15.5 3.71875 12.0312 0.25 7.75 0.25C3.46875 0.25 0 3.71875 0 8C0 11.3125 2.03125 14.0938 4.90625 15.2188C4.84375 14.625 4.78125 13.6875 4.9375 13C5.09375 12.4062 5.84375 9.15625 5.84375 9.15625C5.84375 9.15625 5.625 8.6875 5.625 8C5.625 6.9375 6.25 6.125 7.03125 6.125C7.6875 6.125 8 6.625 8 7.21875C8 7.875 7.5625 8.875 7.34375 9.8125C7.1875 10.5625 7.75 11.1875 8.5 11.1875C9.875 11.1875 10.9375 9.75 10.9375 7.65625C10.9375 5.78125 9.59375 4.5 7.71875 4.5C5.5 4.5 4.21875 6.15625 4.21875 7.84375C4.21875 8.53125 4.46875 9.25 4.78125 9.625C4.84375 9.6875 4.84375 9.78125 4.84375 9.84375C4.78125 10.0938 4.625 10.625 4.625 10.7188C4.59375 10.875 4.5 10.9062 4.34375 10.8438C3.375 10.375 2.78125 8.96875 2.78125 7.8125C2.78125 5.375 4.5625 3.125 7.90625 3.125C10.5938 3.125 12.6875 5.0625 12.6875 7.625C12.6875 10.2812 11 12.4375 8.65625 12.4375C7.875 12.4375 7.125 12.0312 6.875 11.5312C6.875 11.5312 6.5 13.0312 6.40625 13.375C6.21875 14.0625 5.75 14.9062 5.4375 15.4062C6.15625 15.6562 6.9375 15.75 7.75 15.75C12.0312 15.75 15.5 12.2812 15.5 8Z" fill="#707070"/>
        </g>
    </symbol>
    <symbol id="whatsapp" viewBox="0 0 14 14">
        <g>
            <path d="M11.875 2.0625C10.5938 0.75 8.84375 0 6.96875 0C3.15625 0 0.03125 3.125 0.03125 6.9375C0.03125 8.1875 0.375 9.375 0.96875 10.4062L0 14L3.65625 13.0625C4.6875 13.5938 5.8125 13.9062 6.96875 13.9062C10.8125 13.9062 14 10.7812 14 6.96875C14 5.09375 13.1875 3.375 11.875 2.0625ZM6.96875 12.7188C5.9375 12.7188 4.9375 12.4375 4.03125 11.9062L3.84375 11.7812L1.65625 12.375L2.25 10.25L2.09375 10.0312C1.53125 9.09375 1.21875 8.03125 1.21875 6.9375C1.21875 3.78125 3.8125 1.1875 7 1.1875C8.53125 1.1875 9.96875 1.78125 11.0625 2.875C12.1562 3.96875 12.8125 5.40625 12.8125 6.96875C12.8125 10.125 10.1562 12.7188 6.96875 12.7188ZM10.1562 8.40625C9.96875 8.3125 9.125 7.90625 8.96875 7.84375C8.8125 7.78125 8.6875 7.75 8.5625 7.9375C8.46875 8.09375 8.125 8.5 8.03125 8.625C7.90625 8.71875 7.8125 8.75 7.65625 8.65625C6.625 8.15625 5.96875 7.75 5.28125 6.59375C5.09375 6.28125 5.46875 6.3125 5.78125 5.65625C5.84375 5.53125 5.8125 5.4375 5.78125 5.34375C5.75 5.25 5.375 4.40625 5.25 4.0625C5.09375 3.71875 4.96875 3.75 4.84375 3.75C4.75 3.75 4.625 3.75 4.53125 3.75C4.40625 3.75 4.21875 3.78125 4.0625 3.96875C3.90625 4.15625 3.46875 4.5625 3.46875 5.40625C3.46875 6.28125 4.0625 7.09375 4.15625 7.21875C4.25 7.3125 5.375 9.0625 7.125 9.8125C8.21875 10.3125 8.65625 10.3438 9.21875 10.25C9.53125 10.2188 10.2188 9.84375 10.375 9.4375C10.5312 9.03125 10.5312 8.6875 10.4688 8.625C10.4375 8.53125 10.3125 8.5 10.1562 8.40625Z" fill="#707070"/>
        </g>
    </symbol>
    <symbol id="youtube" viewBox="0 0 18 12">
        <g>
            <path d="M17.1562 1.90625C16.9688 1.15625 16.375 0.5625 15.6562 0.375C14.3125 0 9 0 9 0C9 0 3.65625 0 2.3125 0.375C1.59375 0.5625 1 1.15625 0.8125 1.90625C0.4375 3.21875 0.4375 6.03125 0.4375 6.03125C0.4375 6.03125 0.4375 8.8125 0.8125 10.1562C1 10.9062 1.59375 11.4688 2.3125 11.6562C3.65625 12 9 12 9 12C9 12 14.3125 12 15.6562 11.6562C16.375 11.4688 16.9688 10.9062 17.1562 10.1562C17.5312 8.8125 17.5312 6.03125 17.5312 6.03125C17.5312 6.03125 17.5312 3.21875 17.1562 1.90625ZM7.25 8.5625V3.5L11.6875 6.03125L7.25 8.5625Z" fill="#707070"/>
        </g>
    </symbol>
    <symbol id="search" viewBox="0 0 17 17">
        <g>
            <path fill-rule="evenodd" clip-rule="evenodd" d="M11.9579 10.9565L16.7923 15.7909C17.0692 16.0678 17.0692 16.5155 16.7923 16.7924C16.6542 16.9306 16.4729 17 16.2915 17C16.1101 17 15.9288 16.9306 15.7907 16.7924L10.9564 11.9581C9.7997 12.8945 8.32991 13.4583 6.7291 13.4583C3.01889 13.4583 0 10.4394 0 6.72914C0 3.01889 3.01886 0 6.72907 0C10.4393 0 13.4582 3.01893 13.4582 6.72918C13.4582 8.33 12.8944 9.7998 11.9579 10.9565ZM1.41666 6.72914C1.41666 9.65882 3.79946 12.0416 6.7291 12.0416C9.65872 12.0416 12.0415 9.65882 12.0415 6.72914C12.0415 3.79947 9.65875 1.41664 6.7291 1.41664C3.79946 1.41664 1.41666 3.79947 1.41666 6.72914Z" fill="#5A5A5A"/>
        </g>
    </symbol>
    <symbol id="arrow-left" viewBox="0 0 17 17">
        <g>
            <path d="M0.470814 7.29199C0.555523 7.206 0.647415 7.13343 0.744097 7.07031L7.21188 0.481925C7.84285 -0.16054 8.86654 -0.160845 9.49781 0.48223C10.1291 1.125 10.1291 2.16752 9.49781 2.8109L3.9277 8.48514L9.52655 14.189C10.1578 14.8317 10.1578 15.8739 9.52655 16.5176C9.21076 16.8396 8.79679 17 8.38373 17C7.97066 17 7.5564 16.8396 7.24091 16.5176L0.744097 9.89874C0.647415 9.83562 0.554924 9.76305 0.470814 9.67706C0.148144 9.34836 -0.00750451 8.91538 0.000277895 8.48453C-0.00750451 8.05367 0.148144 7.62099 0.470814 7.29199Z" fill="black"/>
        </g>
    </symbol>
    <symbol id="arrow-right" viewBox="0 0 10 17">
        <g>
            <path d="M9.52862 7.29242C9.44481 7.20643 9.35202 7.13386 9.25564 7.07074L2.78769 0.481933C2.15643 -0.160543 1.13336 -0.160848 0.501805 0.482238C-0.129455 1.12502 -0.129455 2.16756 0.501805 2.81095L6.0724 8.48529L0.47367 14.1895C-0.15789 14.832 -0.15789 15.8748 0.47367 16.5182C0.789449 16.8393 1.20281 17 1.61616 17C2.02952 17 2.44378 16.8393 2.75866 16.5176L9.25564 9.89983C9.35202 9.83671 9.44451 9.76445 9.52862 9.67815C9.85188 9.34883 10.0069 8.91645 9.99974 8.48529C10.0072 8.05382 9.85188 7.62083 9.52862 7.29242Z" fill="black"/>
        </g>
    </symbol>
</svg>